Coordinates
version=1
nRows=41
nColumns=38
inDegrees=no

Units are S.I. units (second, meters, Newtons, ...)
If the header above contains a line with 'inDegrees', this indicates whether rotational values are in degrees (yes) or radians (no).

endheader
time	pelvis_tilt	pelvis_list	pelvis_rotation	pelvis_tx	pelvis_ty	pelvis_tz	hip_flexion_r	hip_adduction_r	hip_rotation_r	knee_angle_r	ankle_angle_r	subtalar_angle_r	mtp_angle_r	hip_flexion_l	hip_adduction_l	hip_rotation_l	knee_angle_l	ankle_angle_l	subtalar_angle_l	mtp_angle_l	lumbar_extension	lumbar_bending	lumbar_rotation	arm_flex_r	arm_add_r	arm_rot_r	elbow_flex_r	pro_sup_r	wrist_flex_r	wrist_dev_r	arm_flex_l	arm_add_l	arm_rot_l	elbow_flex_l	pro_sup_l	wrist_flex_l	wrist_dev_l
30	-0.18365	1.27803	1.71673	0.66668	0.27302	0.934478	0.965206	-0.116645	-0.0111844	1.0481	-0.342743	0	0	0.815097	-0.126339	-0.184927	1.00525	-0.132972	0	0	-0.55385	0.154682	0.0265407	0.754199	-0.491616	0.847449	0.508145	0.852492	0	0	-0.133994	-0.134381	-0.23178	0.874836	1.5708	0	0
30.01	-0.187659	1.28336	1.72041	0.666674	0.274468	0.936693	0.952878	-0.116567	-0.0117099	1.04098	-0.341232	0	0	0.801498	-0.126049	-0.189199	0.995665	-0.133302	0	0	-0.548926	0.153766	0.0226053	0.743125	-0.491075	0.84142	0.512282	0.861703	0	0	-0.135703	-0.134378	-0.231187	0.869186	1.5708	0	0
30.02	-0.192384	1.28882	1.72467	0.666688	0.275944	0.938944	0.940247	-0.116639	-0.0122093	1.03374	-0.339694	0	0	0.787377	-0.125758	-0.193897	0.985626	-0.133574	0	0	-0.544007	0.152486	0.018945	0.731698	-0.490523	0.834563	0.516341	0.871845	0	0	-0.137152	-0.133939	-0.231372	0.863617	1.5708	0	0
30.03	-0.197184	1.29396	1.72899	0.666713	0.277443	0.941198	0.927783	-0.11684	-0.0127752	1.02623	-0.33829	0	0	0.773359	-0.125464	-0.198736	0.97521	-0.133805	0	0	-0.538655	0.150938	0.0154619	0.719821	-0.489807	0.826534	0.520521	0.882343	0	0	-0.13857	-0.133311	-0.231738	0.85801	1.5708	0	0
30.04	-0.202753	1.29973	1.73388	0.666762	0.279012	0.943561	0.914369	-0.117159	-0.0135752	1.01829	-0.336725	0	0	0.758165	-0.125323	-0.204147	0.964234	-0.134297	0	0	-0.533927	0.149064	0.0124257	0.706953	-0.488881	0.814822	0.524937	0.895668	0	0	-0.139721	-0.132569	-0.231879	0.852453	1.5708	0	0
30.05	-0.205543	1.30387	1.73664	0.666728	0.280388	0.945596	0.903543	-0.117572	-0.0147217	1.0113	-0.336629	0	0	0.746075	-0.12473	-0.207158	0.954721	-0.133749	0	0	-0.523698	0.150484	0.000210205	0.725344	-0.488505	0.919472	0.515167	0.795282	0	0	-0.145115	-0.130887	-0.237497	0.844266	1.5708	0	0
30.06	-0.210602	1.31017	1.74089	0.666896	0.28203	0.948063	0.889062	-0.117545	-0.0161334	1.0025	-0.334731	0	0	0.730005	-0.125303	-0.213136	0.943266	-0.13448	0	0	-0.519201	0.148404	-0.00272327	0.71339	-0.487372	0.911116	0.51856	0.804007	0	0	-0.146128	-0.130032	-0.238016	0.838504	1.5708	0	0
30.07	-0.221234	1.32283	1.7493	0.667358	0.284161	0.951547	0.864629	-0.116785	-0.0180812	0.98935	-0.328478	0	0	0.703548	-0.127797	-0.22447	0.927138	-0.138211	0	0	-0.524958	0.142393	0.0118884	0.658325	-0.488883	0.754949	0.542598	0.946678	0	0	-0.136423	-0.13423	-0.217839	0.830249	1.5708	0	0
30.08	-0.223741	1.32743	1.75175	0.667478	0.285817	0.95388	0.851079	-0.116887	-0.0200748	0.979779	-0.325928	0	0	0.689654	-0.127729	-0.228384	0.915384	-0.13912	0	0	-0.517638	0.140889	0.0122833	0.641177	-0.489395	0.737699	0.548174	0.955838	0	0	-0.135036	-0.137557	-0.204464	0.821728	1.56476	0	0
30.09	-0.222753	1.32902	1.75142	0.667562	0.287413	0.95585	0.841645	-0.116928	-0.0220991	0.971597	-0.323883	0	0	0.68017	-0.127319	-0.230634	0.905183	-0.139409	0	0	-0.507234	0.139523	0.0122108	0.623569	-0.489697	0.721436	0.55393	0.962221	0	0	-0.134782	-0.141655	-0.189086	0.814613	1.5466	0	0
30.1	-0.220671	1.33141	1.74994	0.667668	0.289032	0.957862	0.831725	-0.116713	-0.0246723	0.964101	-0.324362	0	0	0.669863	-0.127504	-0.233142	0.895126	-0.139956	0	0	-0.498571	0.138357	0.00559638	0.617517	-0.484798	0.730686	0.551276	0.957981	0	0	-0.138928	-0.136327	-0.203832	0.811333	1.56396	0	0
30.11	-0.229704	1.35206	1.75744	0.667855	0.290982	0.961687	0.798675	-0.115545	-0.0299509	0.950614	-0.322797	0	0	0.635549	-0.131259	-0.243839	0.879428	-0.142438	0	0	-0.504578	0.143113	-0.0172013	0.6684	-0.477998	0.920997	0.521346	0.800054	0	0	-0.147638	-0.125424	-0.237682	0.803506	1.5708	0	0
30.12	-0.231666	1.35885	1.75926	0.668112	0.29282	0.964237	0.782052	-0.114559	-0.0322391	0.939362	-0.321411	0	0	0.618206	-0.132057	-0.249017	0.865792	-0.144293	0	0	-0.499148	0.142433	-0.0200067	0.660501	-0.475518	0.92905	0.51939	0.792978	0	0	-0.146888	-0.124763	-0.236525	0.793494	1.5708	0	0
30.13	-0.234024	1.36622	1.7616	0.668418	0.294725	0.966853	0.764582	-0.113545	-0.0346494	0.927551	-0.320002	0	0	0.599871	-0.132815	-0.254426	0.851364	-0.146298	0	0	-0.494119	0.141551	-0.0221488	0.651855	-0.47345	0.936522	0.517758	0.784814	0	0	-0.145388	-0.123926	-0.235555	0.782554	1.5708	0	0
30.14	-0.237671	1.37449	1.7654	0.668751	0.296716	0.969576	0.745938	-0.112611	-0.0371205	0.915978	-0.318457	0	0	0.580081	-0.133366	-0.260022	0.836082	-0.148422	0	0	-0.489707	0.140622	-0.0239534	0.642773	-0.471489	0.943945	0.51602	0.776133	0	0	-0.143222	-0.123427	-0.233674	0.770503	1.5708	0	0
30.15	-0.242593	1.3823	1.77062	0.669062	0.298753	0.972263	0.727646	-0.111904	-0.039367	0.90484	-0.317048	0	0	0.560456	-0.133127	-0.265041	0.820259	-0.150338	0	0	-0.484705	0.139245	-0.025528	0.632578	-0.469862	0.949181	0.515024	0.767568	0	0	-0.140594	-0.122885	-0.231742	0.757616	1.5708	0	0
30.16	-0.247446	1.39011	1.77593	0.669414	0.300815	0.974962	0.709031	-0.110892	-0.0416141	0.892937	-0.31572	0	0	0.540665	-0.132708	-0.269446	0.803982	-0.15251	0	0	-0.47962	0.137698	-0.0267729	0.621799	-0.468258	0.953383	0.514116	0.758033	0	0	-0.13724	-0.122392	-0.229712	0.743483	1.5708	0	0
30.17	-0.251976	1.39806	1.7811	0.669809	0.302918	0.977653	0.690183	-0.109567	-0.0440137	0.880528	-0.314432	0	0	0.520661	-0.132243	-0.273347	0.787315	-0.154903	0	0	-0.474606	0.136084	-0.0275353	0.610496	-0.466676	0.957395	0.513001	0.748363	0	0	-0.133087	-0.12222	-0.226934	0.727814	1.5708	0	0
30.18	-0.256554	1.40572	1.78646	0.670204	0.305078	0.980264	0.671495	-0.108087	-0.0462173	0.867885	-0.312598	0	0	0.501061	-0.131616	-0.276866	0.770726	-0.157343	0	0	-0.469117	0.134364	-0.0277764	0.598576	-0.464863	0.961146	0.510983	0.739713	0	0	-0.128241	-0.122535	-0.22269	0.710366	1.5708	0	0
30.19	-0.258548	1.41272	1.78962	0.670627	0.307279	0.982778	0.653417	-0.105986	-0.0480834	0.855004	-0.31052	0	0	0.482623	-0.131167	-0.279512	0.75452	-0.159973	0	0	-0.462551	0.133042	-0.0271808	0.585623	-0.463377	0.964236	0.508553	0.731402	0	0	-0.121957	-0.123854	-0.214976	0.689567	1.5708	0	0
30.2	-0.259081	1.41876	1.79173	0.671053	0.309498	0.985167	0.636343	-0.103597	-0.0493348	0.842221	-0.308569	0	0	0.465503	-0.130482	-0.281315	0.738318	-0.162902	0	0	-0.453813	0.132282	-0.025468	0.571445	-0.461927	0.966494	0.504321	0.722822	0	0	-0.112901	-0.128809	-0.194831	0.662304	1.5708	0	0
30.21	-0.254784	1.4214	1.78957	0.671471	0.311653	0.987104	0.623976	-0.101332	-0.0501482	0.831616	-0.307171	0	0	0.453279	-0.129549	-0.281673	0.723804	-0.16494	0	0	-0.441945	0.131675	-0.0266283	0.557976	-0.458692	0.967854	0.500008	0.71717	0	0	-0.105344	-0.137235	-0.163331	0.634842	1.54982	0	0
30.22	-0.237363	1.41905	1.77494	0.671734	0.31408	0.988809	0.616171	-0.0982231	-0.0505938	0.819042	-0.306916	0	0	0.44632	-0.128516	-0.279906	0.707996	-0.1679	0	0	-0.423485	0.135827	-0.0341665	0.549519	-0.450855	0.977522	0.490287	0.71298	0	0	-0.0876597	-0.159751	-0.0754688	0.580376	1.49747	0	0
30.23	-0.215212	1.41454	1.75593	0.671918	0.316582	0.990363	0.610262	-0.094695	-0.0508777	0.805237	-0.306391	0	0	0.44169	-0.127508	-0.277327	0.691858	-0.170911	0	0	-0.405512	0.139717	-0.0456273	0.543106	-0.44074	0.986219	0.480948	0.712845	0	0	-0.0672143	-0.177988	0.0104751	0.520893	1.46023	0	0
30.24	-0.203833	1.41332	1.74756	0.672326	0.3187	0.991762	0.603155	-0.0918781	-0.0504994	0.796632	-0.305114	0	0	0.435005	-0.127251	-0.277716	0.680054	-0.171732	0	0	-0.39509	0.136911	-0.049882	0.525312	-0.435885	0.960157	0.483404	0.733056	0	0	-0.063139	-0.177365	0.0106008	0.49959	1.46352	0	0
30.25	-0.197738	1.41548	1.74472	0.672763	0.320843	0.993411	0.591607	-0.0894917	-0.0506071	0.786698	-0.303079	0	0	0.423522	-0.126575	-0.278556	0.665963	-0.173134	0	0	-0.385136	0.134275	-0.0524459	0.511281	-0.432331	0.957414	0.48128	0.731467	0	0	-0.0575372	-0.175171	0.0104256	0.475089	1.46053	0	0
30.26	-0.193222	1.41926	1.74351	0.673242	0.323058	0.995211	0.577833	-0.087261	-0.051498	0.776173	-0.300726	0	0	0.40958	-0.126194	-0.280609	0.650864	-0.175105	0	0	-0.376797	0.131396	-0.0537294	0.496635	-0.429359	0.953734	0.478949	0.729225	0	0	-0.0502158	-0.171836	0.00675026	0.448223	1.46005	0	0
30.27	-0.190226	1.42503	1.74387	0.673709	0.325329	0.997216	0.560939	-0.0851141	-0.0531512	0.763673	-0.298167	0	0	0.392472	-0.126047	-0.284015	0.633992	-0.177909	0	0	-0.370585	0.128499	-0.0537335	0.481546	-0.426894	0.948814	0.476239	0.726015	0	0	-0.0409139	-0.167233	-0.0011461	0.418933	1.46387	0	0
30.28	-0.188153	1.43313	1.74512	0.674212	0.327645	0.999407	0.54112	-0.0827976	-0.0554554	0.750459	-0.29566	0	0	0.372553	-0.126404	-0.288107	0.616804	-0.181352	0	0	-0.367246	0.125603	-0.0527566	0.466414	-0.424801	0.943539	0.473573	0.72289	0	0	-0.03078	-0.162044	-0.0138967	0.389625	1.47401	0	0
30.29	-0.189949	1.44611	1.74983	0.674779	0.330131	1.0021	0.514136	-0.0799092	-0.0586997	0.732997	-0.293363	0	0	0.345616	-0.127213	-0.293584	0.596273	-0.186489	0	0	-0.368441	0.123062	-0.0492074	0.450537	-0.423522	0.937766	0.470254	0.719843	0	0	-0.0162058	-0.154401	-0.0372516	0.354019	1.49708	0	0
30.3	-0.204046	1.47171	1.76617	0.675349	0.332994	1.00605	0.470219	-0.0759756	-0.0651469	0.709004	-0.29401	0	0	0.302273	-0.13023	-0.305247	0.571385	-0.196941	0	0	-0.381438	0.121986	-0.040474	0.433124	-0.425021	0.929083	0.46785	0.714646	0	0	0.0108511	-0.137387	-0.116054	0.300083	1.5708	0	0
30.31	-0.192652	1.47637	1.75836	0.675943	0.335187	1.00757	0.455678	-0.0729986	-0.0667513	0.699474	-0.292669	0	0	0.28912	-0.13169	-0.308019	0.559849	-0.198687	0	0	-0.376315	0.118734	-0.0430654	0.419804	-0.421247	0.924098	0.466431	0.713717	0	0	0.0123853	-0.136436	-0.131008	0.286725	1.5708	0	0
30.32	-0.183799	1.48333	1.75307	0.676516	0.337447	1.00933	0.437143	-0.0697896	-0.0688888	0.686282	-0.290682	0	0	0.272561	-0.132866	-0.310399	0.545902	-0.201274	0	0	-0.372965	0.115686	-0.0450418	0.40654	-0.41716	0.918882	0.463556	0.712901	0	0	0.0151307	-0.135861	-0.142962	0.271769	1.5708	0	0
30.33	-0.178505	1.49411	1.75133	0.677082	0.339764	1.01147	0.41307	-0.0661414	-0.0717579	0.669312	-0.289113	0	0	0.251069	-0.134272	-0.313426	0.530011	-0.205522	0	0	-0.373458	0.113188	-0.0460106	0.393542	-0.413538	0.913774	0.460395	0.712256	0	0	0.0196424	-0.135238	-0.154503	0.25524	1.5708	0	0
30.34	-0.203131	1.52301	1.7796	0.677538	0.342581	1.01541	0.362762	-0.0611433	-0.0802528	0.638456	-0.290459	0	0	0.205087	-0.137478	-0.322569	0.504647	-0.217079	0	0	-0.391671	0.113564	-0.0446679	0.381843	-0.411198	0.908654	0.45665	0.711256	0	0	0.0310475	-0.132588	-0.173741	0.23046	1.5708	0	0
30.35	-0.880811	1.56479	2.4609	0.677839	0.345581	1.02068	0.291637	-0.0549601	-0.0942472	0.595967	-0.306915	0	0	0.140909	-0.142659	-0.339356	0.474777	-0.238569	0	0	-0.426027	0.1165	-0.0472125	0.376793	-0.40891	0.912818	0.454163	0.707265	0	0	0.0374404	-0.130846	-0.19303	0.216206	1.5708	0	0
30.36	-3.01806	1.55603	-1.68121	0.678313	0.347939	1.02339	0.255434	-0.0505249	-0.10233	0.570968	-0.311768	0	0	0.108999	-0.144506	-0.344531	0.454904	-0.246561	0	0	-0.435493	0.115682	-0.048988	0.364917	-0.405342	0.902231	0.451809	0.713546	0	0	0.0379487	-0.13226	-0.194989	0.209785	1.5708	0	0
30.37	3.10856	1.53901	-1.52063	0.678826	0.350296	1.02586	0.220909	-0.0455936	-0.109797	0.546387	-0.316438	0	0	0.0790598	-0.146667	-0.349301	0.436096	-0.253559	0	0	-0.443461	0.114949	-0.0509207	0.353013	-0.401475	0.892503	0.448864	0.721087	0	0	0.0374853	-0.133899	-0.1968	0.204639	1.5708	0	0
30.38	3.06588	1.5177	-1.47355	0.679294	0.352787	1.02862	0.180142	-0.0398967	-0.116646	0.517761	-0.323668	0	0	0.0439891	-0.149181	-0.355358	0.415915	-0.262077	0	0	-0.455244	0.11483	-0.0532289	0.340989	-0.39748	0.880671	0.446181	0.732324	0	0	0.0368397	-0.135461	-0.199578	0.199923	1.5708	0	0
30.39	3.04893	1.49675	-1.45173	0.679697	0.355347	1.03131	0.139564	-0.0342092	-0.125044	0.488381	-0.332902	0	0	0.00878798	-0.151224	-0.360078	0.394081	-0.271204	0	0	-0.466503	0.114805	-0.0560558	0.328236	-0.393226	0.865838	0.443773	0.745852	0	0	0.0354615	-0.136992	-0.203226	0.196173	1.5708	0	0
30.4	3.03459	1.47564	-1.42993	0.679834	0.35811	1.034	0.0959719	-0.0277069	-0.13701	0.453039	-0.345101	0	0	-0.0265113	-0.153487	-0.360731	0.37087	-0.280661	0	0	-0.477553	0.11644	-0.0605219	0.314399	-0.388949	0.848134	0.441591	0.762627	0	0	0.0338225	-0.138341	-0.207646	0.192951	1.5708	0	0
